<?xml version="1.0" encoding="UTF-8" standalone="no"?>
<!-- Created with Inkscape (http://www.inkscape.org/) -->

<svg
   xmlns:dc="http://purl.org/dc/elements/1.1/"
   xmlns:cc="http://creativecommons.org/ns#"
   xmlns:rdf="http://www.w3.org/1999/02/22-rdf-syntax-ns#"
   xmlns:svg="http://www.w3.org/2000/svg"
   xmlns="http://www.w3.org/2000/svg"
   xmlns:inkscape="http://www.inkscape.org/namespaces/inkscape"
   version="1.1"
   width="80"
   height="113.73211"
   id="svg1618">
  <metadata
     id="metadata17">
    <rdf:RDF>
      <cc:Work
         rdf:about="">
        <dc:format>image/svg+xml</dc:format>
        <dc:type
           rdf:resource="http://purl.org/dc/dcmitype/StillImage" />
        <dc:title></dc:title>
      </cc:Work>
    </rdf:RDF>
  </metadata>
  <defs
     id="defs1620">
    <inkscape:perspective
       id="perspective18" />
    <marker
       markerUnits="strokeWidth"
       refX="0"
       refY="5"
       markerWidth="4"
       markerHeight="3"
       orient="auto"
       viewBox="0 0 10 10"
       id="ArrowEnd">
      <path
         d="M 0,0 10,5 0,10 z"
         id="path1623" />
    </marker>
    <marker
       markerUnits="strokeWidth"
       refX="10"
       refY="5"
       markerWidth="4"
       markerHeight="3"
       orient="auto"
       viewBox="0 0 10 10"
       id="ArrowStart">
      <path
         d="M 10,0 0,5 10,10 z"
         id="path1626" />
    </marker>
  </defs>
  <g
     transform="matrix(0.26873999,0,0,0.26873999,-1.3817845e-6,0)"
     id="g1628">
    <g
       id="g1630">
      <path
         d="m 148.846,119.556 c 33.013,0 59.776,-26.764 59.776,-59.778 C 208.622,26.764 181.859,0 148.846,0 115.832,0 89.0711,26.764 89.0711,59.778 c 0,33.014 26.7609,59.778 59.7749,59.778 z"
         id="path1632"
         style="fill:#000000;stroke:none" />
      <path
         d="M 148.846,59.778"
         id="path1634"
         style="fill:#000000;stroke:none" />
    </g>
    <path
       d="m 148.748,244.516 -63.1889,0 0,-45.627 -48.325,48.646 c -21.832,21.832 -51.424,-6.162 -29.55601,-28.033 L 87.6941,139.333 c 6.49,-6.444 13.5929,-10.544 24.8649,-10.544 l 36.189,0 0.06,0 35.501,0 c 11.272,0 18.875,3.975 25.554,10.544 l 80.829,80.955 c 20.819,20.819 -9.572,49.079 -29.541,28.046 l -49.592,-49.695 0,45.877 -62.751,0 -0.06,0 z"
       id="path1636"
       style="fill:#000000;stroke:none" />
    <path
       d="m 211.298,268.179 -47.489,47.493 34.866,34.8 -35.726,35.726 c -21.085,21.087 8.003,51.245 29.808,29.44 l 56.501,-58.749 c 12.126,-12.374 15.479,-35.23 2.479,-48.23 -0.044,-0.044 -40.439,-40.48 -40.439,-40.48 z"
       id="path1638"
       style="fill:#000000;stroke:none" />
    <path
       d="m 85.5701,268.179 47.4889,47.493 -34.8659,34.8 35.7259,35.726 c 21.085,21.087 -8.003,51.245 -29.808,29.44 L 47.6101,356.889 c -12.126,-12.374 -15.479,-35.23 -2.479,-48.23 0.044,-0.044 40.439,-40.48 40.439,-40.48 z"
       id="path1640"
       style="fill:#000000;stroke:none" />
  </g>
</svg>
