<svg xmlns:svg="http://www.w3.org/2000/svg" xmlns="http://www.w3.org/2000/svg" version="1.1" x="0px" y="0px" width="130.39" height="651.68597" viewBox="0 0 130.39 651.68597" enable-background="new 0 0 800 800" xml:space="preserve">
<style>
.s0{
  fill:#d46753;
}
.s1{
  fill:#1a1a19;
}
.s2{
  fill:#272826;
}
.s3{
  fill:#4a4a47;
}
.s4{
  fill:#262724;
}

</style>  <path d="M73.908 147.455H36.545v21.002H92.576V147.455H73.908" fill="#d46753"/>
  <path d="M73.908 147.455H36.545v21.002H92.576V147.455H73.908l0 0 0 0 0 0z" style="fill:none;stroke-width:1.04999995;stroke:#d46753"/>
  <path d="M73.908 168.457H36.545v83.985H92.576V168.457H73.908" fill="#1a1a19"/>
  <path d="m55.224 252.442h18.684v20.993H55.224l0 0v-20.993l0 0z" fill="#908f8a"/>
  <path d="m36.544 252.442h18.68v20.993h-18.68l0 0v-20.993l0 0zM73.908 252.442 73.908 252.442h18.668v20.993H73.908l0 0v-20.993l0 0z" fill="#d46753"/>
  <path d="m56.187 462.412h17.721v-42H56.187l0 0v42l0 0z" fill="#272826"/>
  <path d="M73.908 273.418H36.545V420.411H92.576V273.418H73.908" fill="#1a1a19"/>
  <path d="m37.507 630.394h18.68V420.412h-18.68l0 0v209.982l0 0zM73.908 630.394H92.576V420.412H73.908l0 0v209.982l0 0z" fill="#d46753"/>
  <path d="M39.952 619.536H23.711v16.845H56.187V619.536H39.952M90.152 619.536H73.908v16.845h32.477V619.536H90.152" fill="#4a4a47"/>
  <path d="M39.952 636.38H7.473v15.306H56.186V636.38H39.952M106.384 636.38H73.908v15.306h48.715V636.38h-16.239" fill="#262724"/>
  <path d="M73.908 63.458H36.545v41.99h18.68v21.002h-18.68v21.004H92.576V126.45H73.908V105.448H92.576V63.458H73.908" fill="#f7ccad"/>
  <polygon points="443.022,151.279 443.022,150.346 443.022,108.356 424.354,108.356 424.354,87.354 367.39,87.354 367.39,108.356 348.717,108.356 348.717,150.346 348.717,151.279 348.717,213.805 331.347,213.805 331.312,234.809 331.515,549.766 368.861,549.766 368.861,235.275 368.861,234.809 368.861,214.271 387.002,214.271 387.002,192.326 368.323,192.326 368.323,151.279 423.421,151.279 423.421,192.326 404.753,192.326 404.753,214.271 423.421,214.271 423.421,234.342 423.421,235.275 423.421,550.232 461.702,550.232 461.702,234.342 461.702,213.338 443.022,213.338 " transform="translate(-331.312,-87.354)" fill="#272826"/>
</svg>
