<?xml version="1.0" encoding="UTF-8" standalone="no"?>
<!-- Created with Inkscape (http://www.inkscape.org/) -->

<svg
   xmlns:dc="http://purl.org/dc/elements/1.1/"
   xmlns:cc="http://creativecommons.org/ns#"
   xmlns:rdf="http://www.w3.org/1999/02/22-rdf-syntax-ns#"
   xmlns:svg="http://www.w3.org/2000/svg"
   xmlns="http://www.w3.org/2000/svg"
   version="1.1"
   width="20.21875"
   height="140"
   id="svg3013">
  <defs
     id="defs3015" />
  <metadata
     id="metadata3018">
    <rdf:RDF>
      <cc:Work
         rdf:about="">
        <dc:format>image/svg+xml</dc:format>
        <dc:type
           rdf:resource="http://purl.org/dc/dcmitype/StillImage" />
        <dc:title></dc:title>
      </cc:Work>
    </rdf:RDF>
  </metadata>
  <g
     transform="translate(-225.6875,-517.09375)"
     id="layer1">
    <path
       d="m 225.6875,517.09375 0,140 2.375,0 0,-6.53125 10.28125,0 0,-1.25 -10.28125,0 0,-4.5625 10.28125,0 0,-1.25 -10.28125,0 0,-6.96875 17.65625,0 0,-1.28125 -17.65625,0 0,-5.34375 10.28125,0 0,-1.25 -10.28125,0 0,-4.53125 10.28125,0 0,-1.28125 -10.28125,0 0,-6.03125 17.65625,0 0,-1.25 -17.65625,0 0,-6.15625 10.03125,0 0,-1.25 -10.03125,0 0,-4.5625 10.03125,0 0,-1.25 -10.03125,0 0,-5.21875 17.65625,0 0,-1.25 -17.65625,0 0,-5.78125 10.15625,0 0,-1.28125 -10.15625,0 0,-4.53125 10.15625,0 0,-1.25 -10.15625,0 0,-5.59375 17.65625,0 0,-1.28125 -17.65625,0 0,-18.40625 17.65625,0 0,-1.28125 -17.65625,0 0,-5.6875 10.15625,0 0,-1.25 -10.15625,0 0,-4.5625 10.15625,0 0,-1.25 -10.15625,0 0,-5.6875 17.65625,0 0,-1.25 -17.65625,0 0,-6.125 10.21875,0 0,-1.25 -10.21875,0 0,-4.5625 10.21875,0 0,-1.25 -10.21875,0 0,-5.25 17.65625,0 0,-1.25 -17.65625,0 -0.125,0 -2.25,0 z m 2.4375,46.34375 0,1.25 10.375,0 0,-1.25 -10.375,0 z m 0,5.8125 0,1.25 10.375,0 0,-1.25 -10.375,0 z m 0,86.5625 0,1.25 17.78125,0 0,-1.25 -17.78125,0 z"
       id="rect3021"
       style="fill:#dddddd;fill-opacity:1;stroke:none" />
  </g>
</svg>
