<svg xmlns:svg="http://www.w3.org/2000/svg" xmlns="http://www.w3.org/2000/svg" version="1.1" width="30.598005" height="30.598005"><g transform="translate(-268.701,-608.06318)"><g transform="matrix(0.17990527,0,0,-0.17990527,279.84795,612.2771)"><path d="M0 0-2.485-6.002-27.159 4.218-24.673 10.22 0 0z" fill="#383c6e"/></g><g transform="matrix(0.17990527,0,0,-0.17990527,279.3049,612.50198)"><path d="M0 0 6.001-2.486 16.222 22.188 10.22 24.673 0 0z" fill="#383c6e"/></g><g transform="matrix(0.17990527,0,0,-0.17990527,281.53764,616.35607)"><path d="m0 0-2.486-6.002-24.673 10.22 2.486 6.003L0 0z" fill="#383c6e"/></g><g transform="matrix(0.17990527,0,0,-0.17990527,280.9945,616.58096)"><path d="M0 0 6.001-2.486 16.222 22.187 10.22 24.674 0 0z" fill="#383c6e"/></g><g transform="matrix(0.17990527,0,0,-0.17990527,282.97873,619.83507)"><path d="M0 0-2.486-6.002-27.16 4.219-24.673 10.221 0 0z" fill="#383c6e"/></g><g transform="matrix(0.17990527,0,0,-0.17990527,282.43549,620.05995)"><path d="M0 0 6.002-2.486 16.223 22.187 10.22 24.673 0 0z" fill="#383c6e"/></g><g transform="matrix(0.17990527,0,0,-0.17990527,283.8338,620.97072)"><path d="m0 0-6.669-2.763-20.302 49.014 6.668 2.762L0 0z" fill="#383c6e"/></g><g transform="matrix(0.17990527,0,0,-0.17990527,273.2258,618.45976)"><path d="M0 0 2.485-6.001-22.188-16.222-24.673-10.22 0 0z" fill="#383c6e"/></g><g transform="matrix(0.17990527,0,0,-0.17990527,273.00092,619.00282)"><path d="M0 0 6 2.485-4.219 27.158-10.221 24.673 0 0z" fill="#383c6e"/></g><g transform="matrix(0.17990527,0,0,-0.17990527,277.30468,620.1492)"><path d="m0 0 2.486-6.004-24.673-10.218-2.486 6.001L0 0z" fill="#383c6e"/></g><g transform="matrix(0.17990527,0,0,-0.17990527,277.0798,620.69242)"><path d="M0 0 6.001 2.487-4.219 27.159-10.221 24.673 0 0z" fill="#383c6e"/></g><g transform="matrix(0.17990527,0,0,-0.17990527,280.78358,621.59018)"><path d="m0 0 2.487-6.004-24.674-10.218-2.485 6.001L0 0z" fill="#383c6e"/></g><g transform="matrix(0.17990527,0,0,-0.17990527,280.55852,622.13325)"><path d="M0 0 6.003 2.485-4.217 27.157-10.219 24.672 0 0z" fill="#383c6e"/></g><g transform="matrix(0.17990527,0,0,-0.17990527,282.19156,621.78907)"><path d="m0 0-2.762-6.667-49.013 20.301 2.761 6.669L0 0z" fill="#383c6e"/></g><g transform="matrix(0.17990527,0,0,-0.17990527,272.91483,627.51407)"><path d="M0 0 6.001-2.486-4.217-27.16-10.219-24.674 0 0z" fill="#383c6e"/></g><g transform="matrix(0.17990527,0,0,-0.17990527,273.1398,628.05729)"><path d="M0 0 2.486 6.002-22.186 16.221-24.673 10.22 0 0z" fill="#383c6e"/></g><g transform="matrix(0.17990527,0,0,-0.17990527,276.99381,625.82481)"><path d="m0 0 6.002-2.485-10.22-24.672-6.001 2.485L0 0z" fill="#383c6e"/></g><g transform="matrix(0.17990527,0,0,-0.17990527,277.21885,626.36769)"><path d="M0 0 2.484 6.002-22.188 16.221-24.674 10.22 0 0z" fill="#383c6e"/></g><g transform="matrix(0.17990527,0,0,-0.17990527,280.47271,624.38365)"><path d="M0 0 6.002-2.485-4.217-27.158-10.219-24.673 0 0z" fill="#383c6e"/></g><g transform="matrix(0.17990527,0,0,-0.17990527,280.69768,624.92669)"><path d="m0 0 2.487 6.001-24.674 10.22-2.486-6L0 0z" fill="#383c6e"/></g><g transform="matrix(0.17990527,0,0,-0.17990527,281.60861,623.52873)"><path d="M0 0 2.763-6.668-46.251-26.97-49.014-20.302 0 0z" fill="#383c6e"/></g><g transform="matrix(0.17990527,0,0,-0.17990527,279.09749,634.13665)"><path d="M0 0 6.002 2.485 16.222-22.188 10.221-24.673 0 0z" fill="#383c6e"/></g><g transform="matrix(0.17990527,0,0,-0.17990527,279.64055,634.36153)"><path d="M0 0-2.486 6.002-27.158-4.219-24.672-10.221 0 0z" fill="#383c6e"/></g><g transform="matrix(0.17990527,0,0,-0.17990527,280.78718,630.05734)"><path d="m0 0 6.001 2.485 10.22-24.673-6-2.487L0 0z" fill="#383c6e"/></g><g transform="matrix(0.17990527,0,0,-0.17990527,281.33015,630.2824)"><path d="M0 0-2.487 6-27.159-4.221-24.673-10.222 0 0z" fill="#383c6e"/></g><g transform="matrix(0.17990527,0,0,-0.17990527,282.22809,626.57853)"><path d="M0 0 6.002 2.486 16.222-22.188 10.22-24.673 0 0z" fill="#383c6e"/></g><g transform="matrix(0.17990527,0,0,-0.17990527,282.77123,626.80359)"><path d="m0 0-2.485 6.002-24.673-10.222 2.484-6L0 0z" fill="#383c6e"/></g><g transform="matrix(0.17990527,0,0,-0.17990527,282.42671,625.17091)"><path d="m0 0 6.668-2.761-20.301-49.014-6.669 2.761L0 0z" fill="#383c6e"/></g><g transform="matrix(0.17990527,0,0,-0.17990527,288.15205,634.44762)"><path d="m0 0 2.487 6.002 24.673-10.219-2.487-6L0 0z" fill="#383c6e"/></g><g transform="matrix(0.17990527,0,0,-0.17990527,288.69493,634.22256)"><path d="m0 0-6 2.485-10.219-24.672 6.002-2.485L0 0z" fill="#383c6e"/></g><g transform="matrix(0.17990527,0,0,-0.17990527,286.46245,630.36866)"><path d="M0 0 2.486 6.004 27.159-4.217 24.674-10.219 0 0z" fill="#383c6e"/></g><g transform="matrix(0.17990527,0,0,-0.17990527,287.00561,630.1436)"><path d="m0 0-6.002 2.485-10.22-24.673 6.002-2.485L0 0z" fill="#383c6e"/></g><g transform="matrix(0.17990527,0,0,-0.17990527,285.02129,626.88967)"><path d="M0 0 2.487 6.003 27.16-4.217 24.673-10.22 0 0z" fill="#383c6e"/></g><g transform="matrix(0.17990527,0,0,-0.17990527,285.5646,626.66479)"><path d="m0 0-6.001 2.488-10.22-24.674 6.001-2.487L0 0z" fill="#383c6e"/></g><g transform="matrix(0.17990527,0,0,-0.17990527,284.16647,625.75366)"><path d="M0 0 6.668 2.763 26.97-46.25 20.301-49.015 0 0z" fill="#383c6e"/></g><g transform="matrix(0.17990527,0,0,-0.17990527,294.77438,628.26478)"><path d="M0 0-2.485 6.001 22.188 16.223 24.673 10.221 0 0z" fill="#383c6e"/></g><g transform="matrix(0.17990527,0,0,-0.17990527,294.99908,627.7219)"><path d="m0 0-6-2.486 10.22-24.67 6.002 2.485L0 0z" fill="#383c6e"/></g><g transform="matrix(0.17990527,0,0,-0.17990527,290.6955,626.57518)"><path d="m0 0-2.487 6.002 24.674 10.219 2.486-6L0 0z" fill="#383c6e"/></g><g transform="matrix(0.17990527,0,0,-0.17990527,290.92056,626.0323)"><path d="M0 0-6.003-2.486 4.218-27.158 10.22-24.672 0 0z" fill="#383c6e"/></g><g transform="matrix(0.17990527,0,0,-0.17990527,287.21642,625.13435)"><path d="M0 0-2.485 6.002 22.187 16.223 24.673 10.22 0 0z" fill="#383c6e"/></g><g transform="matrix(0.17990527,0,0,-0.17990527,287.44157,624.59113)"><path d="m0 0-6.002-2.485 10.22-24.673 6.001 2.485L0 0z" fill="#383c6e"/></g><g transform="matrix(0.17990527,0,0,-0.17990527,285.80889,624.93531)"><path d="M0 0 2.761 6.667 51.773-13.635 49.011-20.305 0 0z" fill="#383c6e"/></g><g transform="matrix(0.17990527,0,0,-0.17990527,295.08526,619.21031)"><path d="m0 0-6 2.486 10.219 24.673 6-2.486L0 0z" fill="#383c6e"/></g><g transform="matrix(0.17990527,0,0,-0.17990527,294.8602,618.66726)"><path d="M0 0-2.484-6.002 22.187-16.22 24.673-10.219 0 0z" fill="#383c6e"/></g><g transform="matrix(0.17990527,0,0,-0.17990527,291.00628,620.89956)"><path d="M0 0-6.001 2.485 4.218 27.157 10.22 24.672 0 0z" fill="#383c6e"/></g><g transform="matrix(0.17990527,0,0,-0.17990527,290.78158,620.35668)"><path d="m0 0-2.487-6.003 24.673-10.219 2.487 6.001L0 0z" fill="#383c6e"/></g><g transform="matrix(0.17990527,0,0,-0.17990527,287.52731,622.34091)"><path d="M0 0-6.001 2.486 4.218 27.159 10.22 24.673 0 0z" fill="#383c6e"/></g><g transform="matrix(0.17990527,0,0,-0.17990527,287.30234,621.79769)"><path d="m0 0-2.487-6.001 24.675-10.221 2.485 6.001L0 0z" fill="#383c6e"/></g><g transform="matrix(0.17990527,0,0,-0.17990527,286.39157,623.19564)"><path d="M0 0-2.763 6.668 46.25 26.968 49.013 20.299 0 0z" fill="#383c6e"/></g><g transform="matrix(0.17990527,0,0,-0.17990527,288.90269,612.58808)"><path d="m0 0-6.001-2.484-10.221 24.672 6 2.485L0 0z" fill="#383c6e"/></g><g transform="matrix(0.17990527,0,0,-0.17990527,288.35945,612.3632)"><path d="M0 0 2.487-6 27.158 4.22 24.672 10.221 0 0z" fill="#383c6e"/></g><g transform="matrix(0.17990527,0,0,-0.17990527,287.21291,616.66704)"><path d="m0 0-6.001-2.485-10.22 24.673 6.001 2.486L0 0z" fill="#383c6e"/></g><g transform="matrix(0.17990527,0,0,-0.17990527,286.67012,616.44198)"><path d="M0 0 2.485-6.001 27.158 4.219 24.673 10.223 0 0z" fill="#383c6e"/></g><g transform="matrix(0.17990527,0,0,-0.17990527,285.7719,620.14603)"><path d="m0 0-6-2.485-10.221 24.673 6.002 2.486L0 0z" fill="#383c6e"/></g><g transform="matrix(0.17990527,0,0,-0.17990527,285.22904,619.92097)"><path d="M0 0 2.484-6.001 27.159 4.221 24.672 10.22 0 0z" fill="#383c6e"/></g><g transform="matrix(0.17990527,0,0,-0.17990527,285.57338,621.55347)"><path d="M0 0-6.668 2.761 13.634 51.773 20.302 49.012 0 0z" fill="#383c6e"/></g></g></svg>